<svg width="448" height="48" viewBox="0 0 448 48" fill="none" xmlns="http://www.w3.org/2000/svg">
<rect width="448" height="48" fill="#242424"/>
<path d="M92.8438 29.8125C93.8854 26.4375 95.0938 20.2708 96.4688 11.3125C97.7812 11.3125 98.4688 11.7188 98.5312 12.5312C98.5521 12.7812 98.5625 12.9583 98.5625 13.0625C98.5833 13.1667 98.5521 13.5312 98.4688 14.1562C98.3854 14.7604 98.2604 15.6146 98.0938 16.7188C97.9479 17.8229 97.7604 19.1042 97.5312 20.5625C97.3021 22.0208 97.0417 23.5417 96.75 25.125C96.0417 28.8542 95.3125 32 94.5625 34.5625C93.8125 35.0833 93.2292 35.1667 92.8125 34.8125C92.625 34.625 92.4583 34.375 92.3125 34.0625C92.1667 33.7292 92 33.3542 91.8125 32.9375C91.5417 32.5833 91.0417 31.6458 90.3125 30.125C89.5833 28.6042 88.9896 27.3958 88.5312 26.5C88.0938 25.6042 87.6667 24.7708 87.25 24C86.2917 22.2708 85.4896 21.2604 84.8438 20.9688C84.0938 22.1354 82.7604 25.3333 80.8438 30.5625C80.5104 31.4792 80.2083 32.3333 79.9375 33.125C79.6667 33.8958 79.4375 34.5208 79.25 35L77.3125 34.9062L69.5 16.8438C69.4583 16.7396 69.4375 16.6354 69.4375 16.5312C69.4375 16.4271 69.4688 16.3229 69.5312 16.2188C69.6146 16.1146 69.75 16.0208 69.9375 15.9375C70.2917 15.8125 70.6458 15.75 71 15.75C71.3542 15.75 71.6042 15.8229 71.75 15.9688C71.9167 16.0938 72.0417 16.2604 72.125 16.4688C72.2292 16.6771 72.3125 16.9062 72.375 17.1562C72.4375 17.4062 72.5521 17.7292 72.7188 18.125C72.9062 18.5208 73.1667 19.1042 73.5 19.875C73.8542 20.6458 74.2292 21.4583 74.625 22.3125C75.0208 23.1667 75.4167 24.0208 75.8125 24.875C76.2083 25.7083 76.5833 26.4792 76.9375 27.1875C77.6875 28.75 78.1562 29.625 78.3438 29.8125C80.7604 23.8542 82.25 20.3229 82.8125 19.2188C83.375 18.0938 83.7292 17.4062 83.875 17.1562C84.1042 16.8021 84.2812 16.625 84.4062 16.625C85.3021 16.625 86.8125 18.625 88.9375 22.625C89.5208 23.6875 90.0625 24.7083 90.5625 25.6875C91.7917 28.0625 92.5521 29.4375 92.8438 29.8125ZM106.312 32.8125C108.146 32.8125 110.906 31.9792 114.594 30.3125C114.823 30.3125 115.01 30.3958 115.156 30.5625C115.302 30.7083 115.375 30.8854 115.375 31.0938C114.542 32.5104 112.948 33.6146 110.594 34.4062C108.24 35.1979 106.042 35.3333 104 34.8125C101.688 34.2083 100.281 32.9062 99.7812 30.9062C99.7396 30.5104 99.7188 29.9792 99.7188 29.3125C99.7188 28.6458 99.8854 27.7708 100.219 26.6875C100.573 25.5833 101.167 24.5417 102 23.5625C102.833 22.5833 103.812 21.8125 104.938 21.25C106.062 20.6875 107.26 20.4062 108.531 20.4062C109.74 20.4062 111.094 20.8229 112.594 21.6562C113.302 22.0521 113.865 22.5 114.281 23C114.698 23.5 114.906 24.0104 114.906 24.5312C114.906 24.6771 114.896 24.8229 114.875 24.9688C114.833 26.2396 114.219 27.0417 113.031 27.375C112.51 27.5208 111.906 27.5938 111.219 27.5938L106.719 27.4062C105.219 27.4062 104.073 27.7292 103.281 28.375C102.823 28.7292 102.5 29.2604 102.312 29.9688C102.833 31.8646 104.167 32.8125 106.312 32.8125ZM111.875 23.1562C111.417 22.8229 110.938 22.5833 110.438 22.4375C109.938 22.2917 109.521 22.2188 109.188 22.2188C108.854 22.2188 108.312 22.3333 107.562 22.5625C106.812 22.7708 106.146 23.0104 105.562 23.2812C104.125 23.9479 103.406 24.6458 103.406 25.375C105.073 25.5208 106.323 25.5938 107.156 25.5938C109.469 25.5938 111.031 25.3958 111.844 25C112.344 24.7917 112.594 24.5312 112.594 24.2188C112.594 23.8438 112.354 23.4896 111.875 23.1562ZM117.812 22.875C117.771 21.75 117.729 20.75 117.688 19.875C117.646 18.9792 117.615 18.3229 117.594 17.9062C117.594 17.4688 117.427 16.4167 117.094 14.75C117.281 14.5 117.458 14.2604 117.625 14.0312C117.812 13.8021 118.073 13.6875 118.406 13.6875C119.135 13.6875 119.698 16.7604 120.094 22.9062C120.302 26.4688 120.406 30.0312 120.406 33.5938C120.406 34.5521 119.74 35.0312 118.406 35.0312L118.156 35C118.156 33.9167 118.125 32.5312 118.062 30.8438C118 29.1562 117.948 27.6875 117.906 26.4375C117.885 25.1875 117.854 24 117.812 22.875ZM134.906 31.7188C135.76 31.3646 136.594 31.0417 137.406 30.75C138.219 30.4583 138.99 30.3125 139.719 30.3125C140.469 30.3125 140.844 30.5417 140.844 31C140.844 31.1042 140.812 31.2708 140.75 31.5C140.708 31.7083 140.427 31.9688 139.906 32.2812C139.406 32.5729 138.781 32.8542 138.031 33.125C137.302 33.3958 136.5 33.6458 135.625 33.875C134.75 34.1042 133.896 34.3021 133.062 34.4688C131.333 34.8229 130.104 35 129.375 35C128.646 35 127.854 34.9167 127 34.75C126.167 34.5833 125.385 34.3125 124.656 33.9375C122.969 33.0625 122.125 31.7708 122.125 30.0625C122.125 29.9375 122.125 29.6875 122.125 29.3125C122.125 28.9375 122.281 28.4062 122.594 27.7188C122.906 27.0104 123.375 26.3125 124 25.625C124.625 24.9167 125.354 24.2708 126.188 23.6875C127.938 22.4375 129.771 21.625 131.688 21.25C132.354 21.1042 132.906 21.0312 133.344 21.0312C133.802 21.0312 134.177 21.0417 134.469 21.0625C134.76 21.0625 135.062 21.0833 135.375 21.125C135.688 21.1458 135.958 21.2188 136.188 21.3438C136.729 21.6146 137 22.1458 137 22.9375C137 23.4375 136.646 23.9271 135.938 24.4062C135.75 24.5312 135.583 24.6458 135.438 24.75C135.333 24.2708 135.198 23.8646 135.031 23.5312C134.865 23.1979 134.5 23.0312 133.938 23.0312C131.479 23.5521 129.365 24.3333 127.594 25.375C125.594 26.5625 124.594 27.8125 124.594 29.125C124.594 29.2708 124.604 29.4271 124.625 29.5938C124.625 30.9271 125.135 31.875 126.156 32.4375C126.927 32.8542 127.917 33.0625 129.125 33.0625C130.354 33.0625 131.417 32.9271 132.312 32.6562C133.208 32.3646 134.073 32.0521 134.906 31.7188ZM143.312 29.0625C143.312 26.6042 144.375 24.625 146.5 23.125C148.188 21.9375 150.219 21.2188 152.594 20.9688C152.719 20.9688 153.01 20.9688 153.469 20.9688C153.927 20.9688 154.542 21.1042 155.312 21.375C157.021 21.9583 158.188 22.9896 158.812 24.4688C159.062 25.0521 159.188 25.5521 159.188 25.9688C159.188 26.3646 159.177 26.6458 159.156 26.8125C159.156 29.4167 158.167 31.4688 156.188 32.9688C154.354 34.3438 152.062 35.0312 149.312 35.0312C147.333 35.0312 145.833 34.5729 144.812 33.6562C143.812 32.7396 143.312 31.2083 143.312 29.0625ZM145.469 29.8125C145.469 31.1042 145.812 31.9792 146.5 32.4375C147.021 32.7708 147.896 32.9375 149.125 32.9375C150.354 32.9375 151.438 32.8438 152.375 32.6562C153.312 32.4688 154.146 32.1458 154.875 31.6875C156.438 30.6875 157.219 29.1354 157.219 27.0312C157.219 25.7812 156.885 24.7604 156.219 23.9688C155.49 23.1146 154.531 22.6875 153.344 22.6875C152.531 22.8333 151.708 22.9896 150.875 23.1562C150.062 23.3229 149.292 23.6458 148.562 24.125C146.979 25.1458 145.948 27.0417 145.469 29.8125ZM163.125 34.5C162.271 34.8542 161.698 35.0312 161.406 35.0312C161.135 35.0312 160.948 35 160.844 34.9375C160.74 34.875 160.625 34.7292 160.5 34.5C160.5 33.8125 160.521 32.9479 160.562 31.9062C160.625 30.8646 160.677 29.75 160.719 28.5625C160.76 27.375 160.781 26.1771 160.781 24.9688C160.781 23.7604 160.719 22.6562 160.594 21.6562C160.594 20.9896 161.042 20.6562 161.938 20.6562C162.146 20.6562 162.302 21.0312 162.406 21.7812C162.531 22.5312 162.615 23.1146 162.656 23.5312C162.719 23.9479 162.771 24.25 162.812 24.4375C163.354 23.4583 164.427 22.6875 166.031 22.125C166.885 21.8542 167.688 21.7188 168.438 21.7188C169.188 21.7188 169.844 21.8125 170.406 22C170.99 22.1667 171.479 22.4896 171.875 22.9688C172.292 23.4271 172.5 24.0417 172.5 24.8125C173.042 23.7917 174.26 22.875 176.156 22.0625C177.885 21.2917 179.438 20.9062 180.812 20.9062C182.792 20.9062 183.76 21.6562 183.719 23.1562L184.375 34.7812C184.375 34.8854 184.073 34.9583 183.469 35C182.302 35.0833 181.719 34.9792 181.719 34.6875C181.698 34.2708 181.688 33.8542 181.688 33.4375L181.844 28.4062C181.844 26.0521 181.615 24.1875 181.156 22.8125C179.781 22.9167 178.719 23.1458 177.969 23.5C177.24 23.8333 176.594 24.2604 176.031 24.7812C175.469 25.2812 174.969 25.9583 174.531 26.8125C173.552 28.7292 173.062 31.2708 173.062 34.4375C172.938 34.875 172.531 35.0938 171.844 35.0938C171.385 35.0938 171.01 35.0208 170.719 34.875C170.427 34.7083 170.312 34.5625 170.375 34.4375C170.771 32.2292 170.969 30.5104 170.969 29.2812C170.969 28.3021 170.865 27.375 170.656 26.5C170.469 25.6042 170.229 24.5833 169.938 23.4375C166.938 23.4375 164.917 24.6354 163.875 27.0312C163.417 28.0938 163.156 29.0938 163.094 30.0312C163.052 30.9479 163.031 31.7396 163.031 32.4062C163.031 33.0521 163.062 33.75 163.125 34.5ZM191.812 32.8125C193.646 32.8125 196.406 31.9792 200.094 30.3125C200.323 30.3125 200.51 30.3958 200.656 30.5625C200.802 30.7083 200.875 30.8854 200.875 31.0938C200.042 32.5104 198.448 33.6146 196.094 34.4062C193.74 35.1979 191.542 35.3333 189.5 34.8125C187.188 34.2083 185.781 32.9062 185.281 30.9062C185.24 30.5104 185.219 29.9792 185.219 29.3125C185.219 28.6458 185.385 27.7708 185.719 26.6875C186.073 25.5833 186.667 24.5417 187.5 23.5625C188.333 22.5833 189.312 21.8125 190.438 21.25C191.562 20.6875 192.76 20.4062 194.031 20.4062C195.24 20.4062 196.594 20.8229 198.094 21.6562C198.802 22.0521 199.365 22.5 199.781 23C200.198 23.5 200.406 24.0104 200.406 24.5312C200.406 24.6771 200.396 24.8229 200.375 24.9688C200.333 26.2396 199.719 27.0417 198.531 27.375C198.01 27.5208 197.406 27.5938 196.719 27.5938L192.219 27.4062C190.719 27.4062 189.573 27.7292 188.781 28.375C188.323 28.7292 188 29.2604 187.812 29.9688C188.333 31.8646 189.667 32.8125 191.812 32.8125ZM197.375 23.1562C196.917 22.8229 196.438 22.5833 195.938 22.4375C195.438 22.2917 195.021 22.2188 194.688 22.2188C194.354 22.2188 193.812 22.3333 193.062 22.5625C192.312 22.7708 191.646 23.0104 191.062 23.2812C189.625 23.9479 188.906 24.6458 188.906 25.375C190.573 25.5208 191.823 25.5938 192.656 25.5938C194.969 25.5938 196.531 25.3958 197.344 25C197.844 24.7917 198.094 24.5312 198.094 24.2188C198.094 23.8438 197.854 23.4896 197.375 23.1562ZM220.281 32L220.344 27C220.344 26.2083 220.271 25.5312 220.125 24.9688H215.281L215.219 22.8125H219.906V14.75C219.969 14.5625 220.094 14.375 220.281 14.1875C220.573 13.8958 220.812 13.75 221 13.75C221.208 13.75 221.385 13.7708 221.531 13.8125C221.677 13.8542 221.833 14 222 14.25C222.333 15.625 222.5 17.6979 222.5 20.4688C222.5 21.1562 222.531 21.8333 222.594 22.5C223.26 22.4167 223.927 22.375 224.594 22.375C224.594 22.375 225.135 22.375 226.219 22.375C226.615 22.375 226.979 22.3542 227.312 22.3125L227.219 24.5625L222.656 24.4375L222.812 35.2188C222.438 35.3854 222.115 35.4688 221.844 35.4688C220.802 35.4688 220.281 34.3125 220.281 32ZM229.281 29.0625C229.281 26.6042 230.344 24.625 232.469 23.125C234.156 21.9375 236.188 21.2188 238.562 20.9688C238.688 20.9688 238.979 20.9688 239.438 20.9688C239.896 20.9688 240.51 21.1042 241.281 21.375C242.99 21.9583 244.156 22.9896 244.781 24.4688C245.031 25.0521 245.156 25.5521 245.156 25.9688C245.156 26.3646 245.146 26.6458 245.125 26.8125C245.125 29.4167 244.135 31.4688 242.156 32.9688C240.323 34.3438 238.031 35.0312 235.281 35.0312C233.302 35.0312 231.802 34.5729 230.781 33.6562C229.781 32.7396 229.281 31.2083 229.281 29.0625ZM231.438 29.8125C231.438 31.1042 231.781 31.9792 232.469 32.4375C232.99 32.7708 233.865 32.9375 235.094 32.9375C236.323 32.9375 237.406 32.8438 238.344 32.6562C239.281 32.4688 240.115 32.1458 240.844 31.6875C242.406 30.6875 243.188 29.1354 243.188 27.0312C243.188 25.7812 242.854 24.7604 242.188 23.9688C241.458 23.1146 240.5 22.6875 239.312 22.6875C238.5 22.8333 237.677 22.9896 236.844 23.1562C236.031 23.3229 235.26 23.6458 234.531 24.125C232.948 25.1458 231.917 27.0417 231.438 29.8125Z" fill="#DFDFDF"/>
<path d="M277.469 23.9688C277.469 30.3021 277.208 34.0104 276.688 35.0938L274.406 34.9062C273.26 32.9271 271.333 30.1458 268.625 26.5625C267.562 25.1458 266.5 23.7396 265.438 22.3438C264.396 20.9479 263.438 19.5625 262.562 18.1875C262.146 20.0417 261.938 23.75 261.938 29.3125C261.938 31.4375 261.896 33.2292 261.812 34.6875C261.417 35.0625 260.979 35.25 260.5 35.25C260.042 35.25 259.719 35.1979 259.531 35.0938C259.344 35.0104 259.25 34.8646 259.25 34.6562C259.25 34.4271 259.271 34.0833 259.312 33.625C259.375 33.1458 259.438 32.3542 259.5 31.25C259.583 30.1458 259.656 28.9792 259.719 27.75C259.885 24.5417 259.969 21.7812 259.969 19.4688C259.969 17.1354 259.948 15.2188 259.906 13.7188C260.365 13.3021 260.719 13 260.969 12.8125C261.219 12.625 261.5 12.6354 261.812 12.8438C262.125 13.0312 262.521 13.4583 263 14.125C263.5 14.7708 264.198 15.7396 265.094 17.0312C268.156 21.3854 271.167 25.4688 274.125 29.2812L274.719 13.7188C274.948 13.3021 275.177 13.0208 275.406 12.875C275.635 12.7083 275.938 12.625 276.312 12.625C277.042 12.625 277.406 13.2917 277.406 14.625L277.375 15.7812L277.469 23.9688ZM280.156 29.0625C280.156 26.6042 281.219 24.625 283.344 23.125C285.031 21.9375 287.062 21.2188 289.438 20.9688C289.562 20.9688 289.854 20.9688 290.312 20.9688C290.771 20.9688 291.385 21.1042 292.156 21.375C293.865 21.9583 295.031 22.9896 295.656 24.4688C295.906 25.0521 296.031 25.5521 296.031 25.9688C296.031 26.3646 296.021 26.6458 296 26.8125C296 29.4167 295.01 31.4688 293.031 32.9688C291.198 34.3438 288.906 35.0312 286.156 35.0312C284.177 35.0312 282.677 34.5729 281.656 33.6562C280.656 32.7396 280.156 31.2083 280.156 29.0625ZM282.312 29.8125C282.312 31.1042 282.656 31.9792 283.344 32.4375C283.865 32.7708 284.74 32.9375 285.969 32.9375C287.198 32.9375 288.281 32.8438 289.219 32.6562C290.156 32.4688 290.99 32.1458 291.719 31.6875C293.281 30.6875 294.062 29.1354 294.062 27.0312C294.062 25.7812 293.729 24.7604 293.062 23.9688C292.333 23.1146 291.375 22.6875 290.188 22.6875C289.375 22.8333 288.552 22.9896 287.719 23.1562C286.906 23.3229 286.135 23.6458 285.406 24.125C283.823 25.1458 282.792 27.0417 282.312 29.8125ZM302.094 32L302.156 27C302.156 26.2083 302.083 25.5312 301.938 24.9688H297.094L297.031 22.8125H301.719V14.75C301.781 14.5625 301.906 14.375 302.094 14.1875C302.385 13.8958 302.625 13.75 302.812 13.75C303.021 13.75 303.198 13.7708 303.344 13.8125C303.49 13.8542 303.646 14 303.812 14.25C304.146 15.625 304.312 17.6979 304.312 20.4688C304.312 21.1562 304.344 21.8333 304.406 22.5C305.073 22.4167 305.74 22.375 306.406 22.375C306.406 22.375 306.948 22.375 308.031 22.375C308.427 22.375 308.792 22.3542 309.125 22.3125L309.031 24.5625L304.469 24.4375L304.625 35.2188C304.25 35.3854 303.927 35.4688 303.656 35.4688C302.615 35.4688 302.094 34.3125 302.094 32ZM311.969 21.3438L311.906 13.5625L314.406 13.6562L314.125 31.9688L330.594 32.4375C330.927 32.5417 331.094 32.7188 331.094 32.9688C331.094 33.2188 330.938 33.4792 330.625 33.75C330.021 34.2917 329.333 34.5625 328.562 34.5625C328.375 34.5625 328.177 34.5417 327.969 34.5L311.188 34.3438C311.708 32.4062 311.969 28.0729 311.969 21.3438ZM333.25 29.0625C333.25 26.6042 334.312 24.625 336.438 23.125C338.125 21.9375 340.156 21.2188 342.531 20.9688C342.656 20.9688 342.948 20.9688 343.406 20.9688C343.865 20.9688 344.479 21.1042 345.25 21.375C346.958 21.9583 348.125 22.9896 348.75 24.4688C349 25.0521 349.125 25.5521 349.125 25.9688C349.125 26.3646 349.115 26.6458 349.094 26.8125C349.094 29.4167 348.104 31.4688 346.125 32.9688C344.292 34.3438 342 35.0312 339.25 35.0312C337.271 35.0312 335.771 34.5729 334.75 33.6562C333.75 32.7396 333.25 31.2083 333.25 29.0625ZM335.406 29.8125C335.406 31.1042 335.75 31.9792 336.438 32.4375C336.958 32.7708 337.833 32.9375 339.062 32.9375C340.292 32.9375 341.375 32.8438 342.312 32.6562C343.25 32.4688 344.083 32.1458 344.812 31.6875C346.375 30.6875 347.156 29.1354 347.156 27.0312C347.156 25.7812 346.823 24.7604 346.156 23.9688C345.427 23.1146 344.469 22.6875 343.281 22.6875C342.469 22.8333 341.646 22.9896 340.812 23.1562C340 23.3229 339.229 23.6458 338.5 24.125C336.917 25.1458 335.885 27.0417 335.406 29.8125ZM361.156 26.9375C363.448 26.9375 364.594 27.5208 364.594 28.6875C364.594 29.5625 363.958 30.5833 362.688 31.75C360.792 33.4792 358.24 34.8646 355.031 35.9062C354.885 35.9062 354.719 35.7604 354.531 35.4688C354.365 35.1771 354.229 34.9583 354.125 34.8125C354.042 34.6458 353.979 34.5417 353.938 34.5C356.333 33.7083 358.302 32.75 359.844 31.625C360.885 30.875 361.406 30.2604 361.406 29.7812C361.406 29.3021 360.792 29.0625 359.562 29.0625C358.333 29.0625 356.531 29.3542 354.156 29.9375C353.073 29.8958 352.135 29.5104 351.344 28.7812C350.656 28.1354 350.312 27.4896 350.312 26.8438C350.312 26.1771 350.5 25.5729 350.875 25.0312C351.25 24.4688 351.75 23.9479 352.375 23.4688C353 22.9896 353.729 22.5521 354.562 22.1562C356.604 21.1771 358.719 20.6875 360.906 20.6875C361.552 20.6875 362.177 20.75 362.781 20.875C363.281 20.875 363.573 21.0938 363.656 21.5312C363.74 21.9688 363.781 22.6875 363.781 23.6875C362.552 23.125 361.167 22.8438 359.625 22.8438C357.708 22.8438 356.125 23.2292 354.875 24C353.583 24.75 352.917 25.7292 352.875 26.9375C352.875 27.5208 353.302 27.8125 354.156 27.8125L356.438 27.5625C358.396 27.1458 359.969 26.9375 361.156 26.9375ZM371.25 32L371.312 27C371.312 26.2083 371.24 25.5312 371.094 24.9688H366.25L366.188 22.8125H370.875V14.75C370.938 14.5625 371.062 14.375 371.25 14.1875C371.542 13.8958 371.781 13.75 371.969 13.75C372.177 13.75 372.354 13.7708 372.5 13.8125C372.646 13.8542 372.802 14 372.969 14.25C373.302 15.625 373.469 17.6979 373.469 20.4688C373.469 21.1562 373.5 21.8333 373.562 22.5C374.229 22.4167 374.896 22.375 375.562 22.375C375.562 22.375 376.104 22.375 377.188 22.375C377.583 22.375 377.948 22.3542 378.281 22.3125L378.188 24.5625L373.625 24.4375L373.781 35.2188C373.406 35.3854 373.083 35.4688 372.812 35.4688C371.771 35.4688 371.25 34.3125 371.25 32Z" fill="#3390EC"/>
</svg>
