<svg width="448" height="48" viewBox="0 0 448 48" fill="none" xmlns="http://www.w3.org/2000/svg">
<rect width="448" height="48" fill="#242424"/>
<path d="M158.938 27.8125C157.771 27.6458 157.188 27.375 157.188 27C157.188 26.7292 157.385 26.4167 157.781 26.0625C158.177 25.7083 158.573 25.3438 158.969 24.9688C158.969 23.7188 158.781 22.3229 158.406 20.7812C158.031 19.2188 157.76 18.0104 157.594 17.1562C157.427 16.3021 157.344 15.5208 157.344 14.8125C157.344 14.1042 157.448 13.6562 157.656 13.4688C157.885 13.2812 158.208 13.1875 158.625 13.1875C159.042 13.1875 159.312 13.25 159.438 13.375C159.562 13.4792 159.646 13.6146 159.688 13.7812C159.729 13.9479 159.75 14.125 159.75 14.3125C159.771 14.5 159.812 14.6771 159.875 14.8438C159.979 15.2396 160.302 15.4375 160.844 15.4375C162.24 15.4167 163.635 15.3021 165.031 15.0938C166.427 14.8646 167.812 14.6354 169.188 14.4062C171.938 13.9479 173.865 13.7188 174.969 13.7188C176.094 13.7188 176.979 13.75 177.625 13.8125C177.646 14.2083 177.688 14.5521 177.75 14.8438C177.812 15.1354 177.844 15.375 177.844 15.5625C177.844 15.9167 177.5 16.0417 176.812 15.9375C165.917 16.3333 160.469 17.1458 160.469 18.375C160.469 19.7292 160.562 20.8958 160.75 21.875C160.938 22.8333 161.073 23.4375 161.156 23.6875C161.26 23.9375 161.375 24.0625 161.5 24.0625C162.688 24.0625 163.885 23.9583 165.094 23.75C166.323 23.5417 167.542 23.3229 168.75 23.0938C169.979 22.8438 171.208 22.6146 172.438 22.4062C173.667 22.1979 174.875 22.0938 176.062 22.0938C176.083 22.0938 176.094 22.1771 176.094 22.3438C176.094 22.4896 176.083 22.6562 176.062 22.8438C176 23.3438 176 23.5938 176.062 23.5938C175.167 24.0938 173.542 24.5 171.188 24.8125C170.167 24.9583 169.125 25.0938 168.062 25.2188C167 25.3438 166.021 25.4792 165.125 25.625C163.062 25.9167 161.865 26.3021 161.531 26.7812L161.188 32.9062C160.958 33.1354 160.698 33.25 160.406 33.25L159.25 33.1562C159.146 33.1562 159.042 33.1562 158.938 33.1562V27.8125ZM185.375 30.8125C187.208 30.8125 189.969 29.9792 193.656 28.3125C193.885 28.3125 194.073 28.3958 194.219 28.5625C194.365 28.7083 194.438 28.8854 194.438 29.0938C193.604 30.5104 192.01 31.6146 189.656 32.4062C187.302 33.1979 185.104 33.3333 183.062 32.8125C180.75 32.2083 179.344 30.9062 178.844 28.9062C178.802 28.5104 178.781 27.9792 178.781 27.3125C178.781 26.6458 178.948 25.7708 179.281 24.6875C179.635 23.5833 180.229 22.5417 181.062 21.5625C181.896 20.5833 182.875 19.8125 184 19.25C185.125 18.6875 186.323 18.4062 187.594 18.4062C188.802 18.4062 190.156 18.8229 191.656 19.6562C192.365 20.0521 192.927 20.5 193.344 21C193.76 21.5 193.969 22.0104 193.969 22.5312C193.969 22.6771 193.958 22.8229 193.938 22.9688C193.896 24.2396 193.281 25.0417 192.094 25.375C191.573 25.5208 190.969 25.5938 190.281 25.5938L185.781 25.4062C184.281 25.4062 183.135 25.7292 182.344 26.375C181.885 26.7292 181.562 27.2604 181.375 27.9688C181.896 29.8646 183.229 30.8125 185.375 30.8125ZM190.938 21.1562C190.479 20.8229 190 20.5833 189.5 20.4375C189 20.2917 188.583 20.2188 188.25 20.2188C187.917 20.2188 187.375 20.3333 186.625 20.5625C185.875 20.7708 185.208 21.0104 184.625 21.2812C183.188 21.9479 182.469 22.6458 182.469 23.375C184.135 23.5208 185.385 23.5938 186.219 23.5938C188.531 23.5938 190.094 23.3958 190.906 23C191.406 22.7917 191.656 22.5312 191.656 22.2188C191.656 21.8438 191.417 21.4896 190.938 21.1562ZM208.594 27.8125C207.031 30.2708 204.948 31.7917 202.344 32.375C201.74 32.5 201.188 32.5625 200.688 32.5625C200.208 32.5625 199.802 32.5625 199.469 32.5625C199.156 32.5417 198.802 32.4896 198.406 32.4062C198.01 32.3229 197.646 32.1875 197.312 32C196.542 31.5625 196.156 30.9479 196.156 30.1562C196.073 29.7812 196.031 29.3646 196.031 28.9062C196.031 28.4271 196.135 27.8021 196.344 27.0312C196.552 26.2604 196.927 25.4271 197.469 24.5312C198.031 23.6354 198.708 22.8125 199.5 22.0625C201.146 20.4792 202.927 19.4583 204.844 19C205.406 18.875 205.917 18.8125 206.375 18.8125C206.854 18.8125 207.281 18.8438 207.656 18.9062C208.865 18.9062 209.677 19.7292 210.094 21.375C210.365 22.4167 210.521 23.875 210.562 25.75C210.625 27.6042 210.677 29.0417 210.719 30.0625C210.781 31.0625 210.917 31.9792 211.125 32.8125H209.281C209.198 32.25 209.135 31.75 209.094 31.3125C209.052 30.875 209.01 30.4688 208.969 30.0938C208.865 29.2188 208.74 28.4583 208.594 27.8125ZM208.469 22.9688C208.469 21.7604 207.875 21.1562 206.688 21.1562C206.542 21.1354 206.396 21.125 206.25 21.125C204.729 21.125 203.125 21.8542 201.438 23.3125C200.646 23.9792 199.969 24.7292 199.406 25.5625C198.573 26.75 198.156 27.8125 198.156 28.75C198.156 29.9792 198.865 30.7083 200.281 30.9375C202.156 30.8958 203.948 30.0417 205.656 28.375C206.385 27.6458 206.99 26.8542 207.469 26C208.135 24.8542 208.469 23.8438 208.469 22.9688ZM217.312 30L217.375 25C217.375 24.2083 217.302 23.5312 217.156 22.9688H212.312L212.25 20.8125H216.938V12.75C217 12.5625 217.125 12.375 217.312 12.1875C217.604 11.8958 217.844 11.75 218.031 11.75C218.24 11.75 218.417 11.7708 218.562 11.8125C218.708 11.8542 218.865 12 219.031 12.25C219.365 13.625 219.531 15.6979 219.531 18.4688C219.531 19.1562 219.562 19.8333 219.625 20.5C220.292 20.4167 220.958 20.375 221.625 20.375C221.625 20.375 222.167 20.375 223.25 20.375C223.646 20.375 224.01 20.3542 224.344 20.3125L224.25 22.5625L219.688 22.4375L219.844 33.2188C219.469 33.3854 219.146 33.4688 218.875 33.4688C217.833 33.4688 217.312 32.3125 217.312 30ZM225.375 28.8438C225.375 28.5104 225.344 28.0521 225.281 27.4688C225.24 26.8646 225.198 26.2083 225.156 25.5C225.115 24.7917 225.094 24.0729 225.094 23.3438C225.094 22.6146 225.156 21.9479 225.281 21.3438C225.552 19.9896 226.115 19.3125 226.969 19.3125C227.552 19.4792 227.938 19.6875 228.125 19.9375C228.333 20.1875 228.438 20.5 228.438 20.875C228.438 21.2292 228.344 21.6771 228.156 22.2188C227.469 24.0312 227.125 25.6667 227.125 27.125C227.125 27.6042 227.156 28.1146 227.219 28.6562C227.552 30.0521 228.698 30.75 230.656 30.75C231.677 30.75 232.646 30.5729 233.562 30.2188C235.312 29.5729 236.5 28.8125 237.125 27.9375C237.312 26.9792 237.406 26.1458 237.406 25.4375C237.406 24.7083 237.375 24.0625 237.312 23.5C237.271 22.9375 237.208 22.3229 237.125 21.6562C237.062 20.9688 237.021 20.2188 237 19.4062C237.271 19.2812 237.531 19.2188 237.781 19.2188C238.052 19.2188 238.323 19.3542 238.594 19.625C238.885 19.8958 239.125 20.4062 239.312 21.1562C239.521 21.9062 239.656 22.7917 239.719 23.8125C239.781 24.8125 239.812 25.8542 239.812 26.9375C239.833 28.0208 239.844 29.0729 239.844 30.0938C239.844 31.0938 239.885 31.9583 239.969 32.6875C239.719 32.9167 239.479 33.0312 239.25 33.0312C238.417 33.0312 237.802 32.1979 237.406 30.5312C237.135 30.7604 236.677 31.0417 236.031 31.375C234.656 32.125 233.031 32.625 231.156 32.875C230.802 32.9167 230.406 32.9375 229.969 32.9375C229.531 32.9375 228.979 32.8542 228.312 32.6875C227.667 32.5208 227.052 32.1354 226.469 31.5312C225.885 30.9271 225.521 30.0312 225.375 28.8438ZM257.125 21.5938C256.25 20.9688 255.125 20.6562 253.75 20.6562C252.458 20.6562 251.26 20.8958 250.156 21.375C248.073 22.25 246.646 23.375 245.875 24.75C245.542 25.375 245.375 26.0417 245.375 26.75C245.375 26.875 245.375 27.2292 245.375 27.8125C245.375 28.375 245.479 29.1458 245.688 30.125C245.896 31.0833 246 32.0625 246 33.0625C245.562 33.0833 245.208 33.1354 244.938 33.2188C244.667 33.3021 244.438 33.3438 244.25 33.3438C244.062 33.3438 243.896 33.2604 243.75 33.0938C243.625 32.9271 243.479 32.6042 243.312 32.125C243.292 32 243.25 31.6458 243.188 31.0625C243.125 30.4792 243.042 29.7708 242.938 28.9375C242.854 28.1042 242.75 27.1979 242.625 26.2188C242.521 25.2188 242.417 24.2396 242.312 23.2812C242.083 21.1979 241.906 19.6667 241.781 18.6875C241.781 18.1875 242.146 17.9375 242.875 17.9375C243.312 17.9375 243.656 18.125 243.906 18.5C244.156 18.8542 244.354 19.2708 244.5 19.75C244.646 20.2083 244.74 20.6667 244.781 21.125C244.844 21.5833 244.896 21.9062 244.938 22.0938C247.688 19.6354 251.104 18.4062 255.188 18.4062C255.646 18.4062 256.125 18.4167 256.625 18.4375C256.75 18.4167 256.906 18.4062 257.094 18.4062C257.281 18.4062 257.469 18.5312 257.656 18.7812C257.885 19.0729 258 19.4271 258 19.8438C258 20.8854 257.708 21.4688 257.125 21.5938ZM265.812 30.8125C267.646 30.8125 270.406 29.9792 274.094 28.3125C274.323 28.3125 274.51 28.3958 274.656 28.5625C274.802 28.7083 274.875 28.8854 274.875 29.0938C274.042 30.5104 272.448 31.6146 270.094 32.4062C267.74 33.1979 265.542 33.3333 263.5 32.8125C261.188 32.2083 259.781 30.9062 259.281 28.9062C259.24 28.5104 259.219 27.9792 259.219 27.3125C259.219 26.6458 259.385 25.7708 259.719 24.6875C260.073 23.5833 260.667 22.5417 261.5 21.5625C262.333 20.5833 263.312 19.8125 264.438 19.25C265.562 18.6875 266.76 18.4062 268.031 18.4062C269.24 18.4062 270.594 18.8229 272.094 19.6562C272.802 20.0521 273.365 20.5 273.781 21C274.198 21.5 274.406 22.0104 274.406 22.5312C274.406 22.6771 274.396 22.8229 274.375 22.9688C274.333 24.2396 273.719 25.0417 272.531 25.375C272.01 25.5208 271.406 25.5938 270.719 25.5938L266.219 25.4062C264.719 25.4062 263.573 25.7292 262.781 26.375C262.323 26.7292 262 27.2604 261.812 27.9688C262.333 29.8646 263.667 30.8125 265.812 30.8125ZM271.375 21.1562C270.917 20.8229 270.438 20.5833 269.938 20.4375C269.438 20.2917 269.021 20.2188 268.688 20.2188C268.354 20.2188 267.812 20.3333 267.062 20.5625C266.312 20.7708 265.646 21.0104 265.062 21.2812C263.625 21.9479 262.906 22.6458 262.906 23.375C264.573 23.5208 265.823 23.5938 266.656 23.5938C268.969 23.5938 270.531 23.3958 271.344 23C271.844 22.7917 272.094 22.5312 272.094 22.2188C272.094 21.8438 271.854 21.4896 271.375 21.1562ZM287.438 24.9375C289.729 24.9375 290.875 25.5208 290.875 26.6875C290.875 27.5625 290.24 28.5833 288.969 29.75C287.073 31.4792 284.521 32.8646 281.312 33.9062C281.167 33.9062 281 33.7604 280.812 33.4688C280.646 33.1771 280.51 32.9583 280.406 32.8125C280.323 32.6458 280.26 32.5417 280.219 32.5C282.615 31.7083 284.583 30.75 286.125 29.625C287.167 28.875 287.688 28.2604 287.688 27.7812C287.688 27.3021 287.073 27.0625 285.844 27.0625C284.615 27.0625 282.812 27.3542 280.438 27.9375C279.354 27.8958 278.417 27.5104 277.625 26.7812C276.938 26.1354 276.594 25.4896 276.594 24.8438C276.594 24.1771 276.781 23.5729 277.156 23.0312C277.531 22.4688 278.031 21.9479 278.656 21.4688C279.281 20.9896 280.01 20.5521 280.844 20.1562C282.885 19.1771 285 18.6875 287.188 18.6875C287.833 18.6875 288.458 18.75 289.062 18.875C289.562 18.875 289.854 19.0938 289.938 19.5312C290.021 19.9688 290.062 20.6875 290.062 21.6875C288.833 21.125 287.448 20.8438 285.906 20.8438C283.99 20.8438 282.406 21.2292 281.156 22C279.865 22.75 279.198 23.7292 279.156 24.9375C279.156 25.5208 279.583 25.8125 280.438 25.8125L282.719 25.5625C284.677 25.1458 286.25 24.9375 287.438 24.9375Z" fill="#3390EC"/>
</svg>
